<?xml version="1.0" encoding="UTF-8"?>
<!-- Generator: Adobe Illustrator 16.0.0, SVG Export Plug-In . SVG Version: 6.00 Build 0)  -->
<!DOCTYPE svg PUBLIC "-//W3C//DTD SVG 1.1//EN" "http://www.w3.org/Graphics/SVG/1.1/DTD/svg11.dtd">
<svg version="1.1" xmlns="http://www.w3.org/2000/svg" xmlns:xlink="http://www.w3.org/1999/xlink" x="0px" y="0px" width="25px" height="25px" viewBox="0 0 25 25" enable-background="new 0 0 25 25" xml:space="preserve">
<g id="Layer_3">
</g>
<g id="Layer_2" display="none">
</g>
<g id="Layer_1">
	<path fill="#7E97A7" d="M8.616,11.021c-0.134,0.372-0.446,0.644-0.936,0.816c-0.09,0.056-0.18,0.086-0.27,0.086   C5.804,12.439,5,13.053,5,14.113c0,0.344,0.067,0.58,0.2,0.707c0.133,0.13,0.403,0.195,0.803,0.195h5.426l0.795,7.987h0.536   l0.811-7.987h5.426c0.4,0,0.669-0.059,0.804-0.174c0.134-0.113,0.2-0.357,0.2-0.73c0-1.06-0.805-1.673-2.41-2.189l0.001-0.001   c-0.09,0-0.18-0.029-0.271-0.086c-0.49-0.172-0.803-0.444-0.937-0.816l-1.206-5.07V5.734c0-0.228,0.225-0.415,0.67-0.558   l0.067-0.044h0.067c0.535-0.142,0.804-0.386,0.804-0.73c0-0.402-0.091-0.652-0.269-0.752S16.027,3.5,15.58,3.5H9.42   c-0.448,0-0.758,0.05-0.938,0.15C8.304,3.751,8.214,4.001,8.214,4.403c0,0.343,0.268,0.587,0.804,0.73h0.067l0.067,0.043   C9.598,5.319,9.82,5.504,9.82,5.734V5.95L8.616,11.021z"/>
</g>
</svg>