<?xml version="1.0" encoding="utf-8"?>
<!-- Generator: Adobe Illustrator 25.3.0, SVG Export Plug-In . SVG Version: 6.00 Build 0)  -->
<svg version="1.1" id="Layer_1" xmlns="http://www.w3.org/2000/svg" xmlns:xlink="http://www.w3.org/1999/xlink" x="0px" y="0px"
	 viewBox="0 0 200 200" style="enable-background:new 0 0 200 200;" xml:space="preserve">
<style type="text/css">
	.st0{fill:#FFFFFF;}
</style>
<g>
	<path class="st0" d="M-478.36-3.36c0.33-1.28,0.62-2.56,0.99-3.82c3.06-10.38,12.81-17.34,23.59-16.84
		c0.81,0.04,1.61,0.21,2.36,0.3c-8.88,8.86-17.69,17.66-26.49,26.46c-0.1-0.25-0.27-0.67-0.44-1.1
		C-478.36-0.02-478.36-1.69-478.36-3.36z"/>
	<path class="st0" d="M-331.45,4.15c-0.31,0.65-0.55,1.32-0.93,1.9c-0.3,0.46-0.75,0.81-1.14,1.2
		c-34.25,34.25-68.51,68.51-102.76,102.76c-0.2,0.2-0.39,0.4-0.59,0.59c-1.84,1.77-3.24,1.79-5.02,0.03
		c-5.89-5.81-11.78-11.63-17.65-17.46c-2.01-2-2-3.33,0.04-5.36c13.8-13.77,27.61-27.54,41.41-41.31
		c20.68-20.64,41.36-41.28,62.05-61.92c2.29-2.28,2.69-2.24,5.67-0.95c3.52,1.53,6.45,3.73,9.1,6.51c3.47,3.65,7.38,6.92,9.08,11.91
		C-331.98,2.72-331.73,3.38-331.45,4.15z"/>
	<path class="st0" d="M-429.18,48.86c0-0.59,0-1.18,0-1.77c0-29.04,0-58.08,0-87.11c0-3.56,0.76-4.33,4.27-4.33
		c1.44,0,2.89-0.04,4.33,0.02c1.79,0.07,2.83,1.16,2.93,2.96c0.02,0.44,0.01,0.89,0.01,1.33c0,25.37-0.01,50.75,0.02,76.12
		c0,1.25-0.31,2.17-1.23,3.06c-3.34,3.24-6.6,6.57-9.89,9.86C-428.88,48.96-429.03,48.91-429.18,48.86z"/>
	<path class="st0" d="M-359.73,42.04c0,0.54,0,1.09,0,1.63c0,21.32,0,42.63,0,63.95c0,3.39-0.87,4.27-4.2,4.28
		c-1.17,0-2.33,0.01-3.5,0c-2.93-0.02-3.91-0.98-3.91-3.89c0-14.77,0-29.53,0-44.3c0-3.11-0.02-6.22,0.02-9.33
		c0.01-0.57,0.1-1.3,0.45-1.66c3.55-3.66,7.16-7.26,10.75-10.87C-360,41.91-359.87,41.97-359.73,42.04z"/>
	<path class="st0" d="M-400.29,20.08c0-0.54,0-1.08,0-1.62c0-19.49,0-38.97,0-58.46c0-3.53,0.8-4.35,4.27-4.35c1.17,0,2.33,0,3.5,0
		c2.85,0.01,3.82,0.95,3.82,3.77c0,14.6-0.18,29.21,0.11,43.8c0.08,4.25-0.94,7.36-4.23,10.03c-2.56,2.08-4.73,4.66-7.08,7.01
		C-400.02,20.21-400.15,20.15-400.29,20.08z"/>
	<path class="st0" d="M-330.85-7.75c-3.44-3.45-6.77-6.78-10.19-10.21c0.12-0.14,0.33-0.45,0.58-0.7
		c6.99-7.07,13.99-14.14,20.99-21.2c2.12-2.14,3.41-2.14,5.47-0.03c1.75,1.79,3.5,3.57,5.2,5.4c1.54,1.65,1.55,3.08-0.03,4.67
		C-316.15-22.45-323.5-15.11-330.85-7.75z"/>
	<path class="st0" d="M-365.77-50.14c-6.12-0.41-10.49,1.74-11.44,8.59c-1.81,0-3.66,0-5.6,0c-0.12-0.67-0.19-1.32-0.34-1.96
		c-0.93-3.78-4.13-6.41-8.03-6.57c-1.66-0.07-3.33-0.04-5-0.04c-5.94,0.01-8.98,2.61-9.97,8.59c-1.8,0-3.61,0-5.51,0
		c-0.95-6.66-5.15-9.13-11.68-8.57c0-1.22-0.08-2.26,0.02-3.28c0.13-1.29,0.9-2.15,2.18-2.42c0.7-0.15,1.43-0.15,2.15-0.15
		c16.22-0.01,32.43-0.01,48.65-0.01C-366.05-55.94-364.98-54.63-365.77-50.14z"/>
	<path class="st0" d="M-388.69,70.52c0,0.91,0,1.4,0,1.88c0,11.87,0,23.74,0,35.61c0,2.93-0.95,3.87-3.89,3.89
		c-1.44,0.01-2.89,0.03-4.33-0.01c-2.2-0.06-3.35-1.12-3.35-3.27c-0.04-8.54-0.03-17.08,0.01-25.63c0-0.49,0.22-1.11,0.56-1.45
		C-396.16,77.94-392.58,74.39-388.69,70.52z"/>
	<path class="st0" d="M-371.34-8.23c0-11.38-0.02-22.26,0.02-33.14c0.01-1.78,1.18-2.9,2.95-2.95c1.89-0.06,3.78-0.06,5.66,0
		c1.76,0.06,2.93,1.17,2.94,2.97c0.05,6.94,0.03,13.88,0.01,20.83c0,0.35-0.12,0.81-0.36,1.04
		C-363.73-15.82-367.38-12.19-371.34-8.23z"/>
	<path class="st0" d="M-458.86,21.87c8.86-8.86,17.67-17.65,26.51-26.48c1.06,8.24-1.51,15.29-7.78,20.87
		C-445.5,21.04-451.83,22.92-458.86,21.87z"/>
	<path class="st0" d="M-436.87-14.77c0.71,1.1,1.45,2.25,2.09,3.24c-10.34,10.35-20.58,20.59-30.99,31
		c-0.95-0.61-2.13-1.38-3.22-2.08C-458.29,6.66-447.66-3.97-436.87-14.77z"/>
	<path class="st0" d="M-473.52,12.74c-2.65-3.12-2.65-3.12,0.28-6.05c8.91-8.9,17.85-17.76,26.68-26.74
		c1.32-1.35,2.26-1.39,3.57-0.31c0.51,0.42,1.08,0.77,1.44,1.03C-452.21-8.64-462.83,2.02-473.52,12.74z"/>
	<path class="st0" d="M-417.68,99.85c0,3.2,0.07,6.35-0.03,9.49c-0.05,1.46-1.09,2.37-2.5,2.46c-2.1,0.13-4.22,0.12-6.32-0.01
		c-0.73-0.05-1.44-0.64-2.1-0.96C-424.91,107.11-421.36,103.54-417.68,99.85z"/>
</g>
<g>
	<path class="st0" d="M-493.37-325c3.43,0,6.86,0,10.29,0c2.26,0.27,4.53,0.49,6.78,0.81c17.17,2.46,32.54,9.09,45.48,20.66
		c23.36,20.88,33.25,47.13,29.49,78.2c-2.29,18.94-10.36,35.47-23.82,49.02c-22.04,22.2-48.73,30.57-79.5,25.25
		c-17.59-3.04-32.71-11.28-45.37-23.86c-13.18-13.1-21.43-28.86-24.63-47.19c-0.58-3.3-0.91-6.64-1.36-9.96c0-3.43,0-6.86,0-10.29
		c0.1-0.61,0.23-1.21,0.31-1.82c0.41-3.11,0.64-6.25,1.23-9.33c3.73-19.3,12.85-35.63,27.4-48.82
		c12.53-11.35,27.18-18.5,43.87-21.33C-499.93-324.22-496.64-324.56-493.37-325z M-474.53-184.32c-0.03,0.24-0.05,0.49-0.08,0.73
		c8.38-1.04,16.75-2.11,25.13-3.1c1.3-0.15,1.97-0.7,2.56-1.83c5.75-10.84,11.56-21.65,17.39-32.44c0.55-1.02,0.62-1.8,0.01-2.81
		c-4.49-7.48-9-14.96-13.35-22.53c-1.02-1.77-2.19-2.04-4-1.84c-11.75,1.28-23.51,2.49-35.27,3.66c-1.01,0.1-1.49,0.5-1.93,1.33
		c-4.39,8.4-8.79,16.78-13.25,25.14c-0.52,0.98-0.53,1.68,0.04,2.65c5.35,9.17,10.76,18.31,15.9,27.6
		C-479.78-184.9-478.18-182.99-474.53-184.32z M-469.61-306.51c0.03-0.17,0.06-0.33,0.09-0.5c-7.27,0.73-14.53,1.43-21.79,2.23
		c-0.6,0.07-1.44,0.74-1.63,1.31c-3.36,9.88-6.65,19.77-9.87,29.69c-0.19,0.57,0.1,1.54,0.51,2.02c1.78,2.07,3.73,3.99,5.56,6.02
		c4.3,4.81,8.6,9.62,12.82,14.5c0.81,0.94,1.53,1.31,2.75,1.07c1.39-0.27,2.84-0.3,4.25-0.44c10.33-1.05,20.67-2.09,30.99-3.2
		c0.57-0.06,1.37-0.65,1.57-1.18c2.69-6.96,5.32-13.95,7.87-20.96c0.2-0.56-0.05-1.57-0.46-2.04c-7.04-8.03-14.34-15.84-21.14-24.06
		C-461.25-305.86-464.56-307.92-469.61-306.51z M-533.82-218.99c-0.17,0.17-0.67,0.54-0.99,1.04c-4.62,7.21-9.2,14.45-13.84,21.65
		c-0.57,0.89-0.61,1.54-0.11,2.47c3.96,7.23,8.42,14.12,13.67,20.49c0.41,0.5,1.18,0.88,1.84,0.99c12.07,2.19,24.16,4.31,36.23,6.52
		c1.31,0.24,2.07,0.05,2.86-1.05c3.19-4.46,6.43-8.88,9.72-13.27c0.63-0.84,0.34-1.41-0.08-2.13c-5.67-9.78-11.31-19.57-17.03-29.32
		c-0.39-0.66-1.3-1.26-2.05-1.4c-4.99-0.94-10.02-1.65-15.01-2.63C-523.54-216.6-528.42-217.79-533.82-218.99z M-557.52-272.78
		c0.26,0.26,0.59,0.74,1.05,1.01c5.83,3.48,11.66,6.95,17.54,10.35c0.49,0.28,1.45,0.26,1.93-0.04
		c8.92-5.58,18.23-10.38,27.98-14.33c0.63-0.25,1.28-0.97,1.5-1.61c3.08-9.12,6.07-18.28,9.15-27.4c0.35-1.05,0.08-1.51-0.75-2.07
		c-4.46-3.01-9.18-5.5-14.19-7.49c-1.17-0.46-2.07-0.44-3.2-0.03c-9.7,3.56-18.44,8.75-26.13,15.62c-2.5,2.23-5.32,4.47-6.86,7.31
		c-2.95,5.43-5.1,11.3-7.57,17C-557.26-274.05-557.32-273.58-557.52-272.78z M-560.93-267.91c-2.43,4.03-4.82,7.98-7.19,11.93
		c-0.2,0.33-0.26,0.75-0.34,1.14c-2.84,13.19-2.49,26.3,1.01,39.33c0.56,2.08,0.84,4.53,2.14,6.06c3.35,3.97,7.61,7,12.19,9.72
		c0.41-0.6,0.76-1.1,1.1-1.62c4.46-6.98,8.88-13.97,13.39-20.91c0.72-1.11,0.86-2.14,0.62-3.37c-0.47-2.46-1.05-4.93-1.27-7.42
		c-0.63-7.28-1.1-14.57-1.68-21.85c-0.04-0.54-0.3-1.3-0.71-1.55C-547.97-260.26-554.31-263.99-560.93-267.91z M-406.36-230.04
		c-5.3,2.92-10.68,5.87-16.04,8.87c-0.56,0.31-1.11,0.82-1.41,1.37c-6.23,11.54-12.43,23.1-18.59,34.69
		c-0.3,0.57-0.36,1.41-0.23,2.06c0.71,3.46,1.52,6.9,2.29,10.35c0.13,0.58,0.23,1.18,0.4,2.06
		C-419.97-185.88-408.86-205.68-406.36-230.04z M-457.08-313.33c-0.07,1.76-0.88,3.24,0.44,4.72c8.1,9.08,16.16,18.2,24.26,27.29
		c0.47,0.53,1.12,0.95,1.76,1.27c5.26,2.71,10.55,5.39,15.82,8.08c0.37,0.19,0.73,0.38,1.38,0.71
		C-422.74-290.95-437.16-304.79-457.08-313.33z M-528.17-165.72c8.19,6.33,37.1,13.15,42.21,10.22c-2.77-1.21-5.57-2.48-8.41-3.65
		c-1.3-0.53-2.66-1.01-4.04-1.26c-7.35-1.37-14.71-2.66-22.07-3.97C-522.9-164.82-525.34-165.23-528.17-165.72z"/>
</g>
<g>
	<path class="st0" d="M-261.88,65c3.2,0.62,6.43,1.07,9.58,1.89c12.3,3.21,22.13,10.2,30.38,19.73
		c10.1,11.65,15.76,25.27,18.27,40.32c1.46,8.76,2.65,17.56,4.29,26.28c1.33,7.08,4.13,13.62,8.78,19.25
		c0.63,0.77,1.2,1.18,2.33,1.08c2.13-0.2,3.74,0.98,5.2,2.45c10.69,10.73,21.4,21.43,32.11,32.15c5.71,5.71,11.42,11.41,17.11,17.12
		c3.33,3.34,3.31,6.53-0.02,9.88c-2.47,2.49-4.94,4.98-7.44,7.44c-2.82,2.77-6.2,2.82-8.99,0.03
		c-16.72-16.69-33.42-33.41-50.13-50.11c-1.44-1.44-2.13-3.13-2.1-5.19c0.01-0.6-0.47-1.37-0.96-1.8
		c-6.31-5.48-13.78-8.54-21.9-9.96c-7.82-1.37-15.71-2.39-23.56-3.55c-18.95-2.81-35.16-10.84-47.92-25.33
		c-7.91-8.99-12.49-19.5-13.84-31.41c-0.04-0.39-0.2-0.77-0.31-1.15c0-3.04,0-6.08,0-9.12c0.11-0.38,0.26-0.76,0.32-1.15
		c2.8-17.85,12.48-30.17,29.55-36.38c3.25-1.18,6.75-1.66,10.13-2.46C-267.96,65-264.92,65-261.88,65z M-194.72,177.38
		c-2.02-3.27-4.26-6.41-6-9.82c-4.21-8.25-5.49-17.3-6.77-26.33c-0.56-3.97-1.16-7.94-1.79-12.21
		c-4.08,20.28-15.91,32.62-35.95,37.37c0.55,0.15,0.86,0.28,1.19,0.32c4.4,0.61,8.8,1.18,13.19,1.8c7.72,1.09,15.33,2.69,22.26,6.43
		c3.47,1.87,6.68,4.22,9.98,6.34C-197.37,180.05-196.02,178.69-194.72,177.38z M-271.13,97.09c-2.67-2.69-5.44-5.48-7.95-8.01
		c-2.61,2.62-5.35,5.37-7.89,7.92c2.59,2.6,5.34,5.35,7.96,7.98C-276.37,102.34-273.62,99.59-271.13,97.09z M-253.63,130.52
		c2.71-2.7,5.47-5.44,8.04-7.99c-2.74-2.74-5.52-5.51-8.1-8.1c-2.61,2.61-5.35,5.35-7.95,7.96
		C-259.04,125.03-256.31,127.81-253.63,130.52z M-291.83,117.86c2.78-2.79,5.52-5.54,8.05-8.08c-2.7-2.68-5.48-5.45-8.04-8
		c-2.6,2.58-5.35,5.32-8.07,8.03C-297.28,112.42-294.56,115.14-291.83,117.86z M-266.49,117.73c2.78-2.79,5.52-5.54,8.15-8.18
		c-2.61-2.61-5.35-5.36-7.82-7.83c-2.71,2.71-5.48,5.48-8.14,8.14C-271.77,112.41-269.07,115.13-266.49,117.73z M-266.41,92.22
		c2.7-2.71,5.44-5.46,8.01-8.04c-2.61-2.6-5.36-5.34-8.04-8.01c-2.61,2.65-5.33,5.41-7.97,8.1
		C-271.77,86.89-269.01,89.63-266.41,92.22z M-274.32,134.99c2.68,2.69,5.42,5.44,8.03,8.06c2.63-2.63,5.39-5.38,8.06-8.04
		c-2.66-2.67-5.4-5.42-8.06-8.09C-268.99,129.63-271.73,132.39-274.32,134.99z M-241.07,117.58c2.72-2.67,5.49-5.38,8.16-8
		c-2.66-2.66-5.42-5.4-8.06-8.03c-2.65,2.66-5.4,5.41-8.06,8.08C-246.37,112.29-243.62,115.03-241.07,117.58z M-248.98,135.02
		c2.63,2.69,5.36,5.47,7.95,8.12c2.72-2.72,5.47-5.48,8.13-8.15c-2.64-2.64-5.4-5.39-8.04-8.03
		C-243.62,129.64-246.37,132.4-248.98,135.02z M-253.81,104.92c2.68-2.69,5.45-5.48,8.03-8.07c-2.58-2.58-5.32-5.32-7.84-7.85
		c-2.64,2.63-5.39,5.37-8.06,8.03C-259.05,99.67-256.3,102.42-253.81,104.92z M-228.26,114.25c-2.71,2.72-5.46,5.47-8.05,8.06
		c2.67,2.69,5.41,5.45,8.05,8.1c2.67-2.68,5.42-5.43,8.09-8.1C-222.77,119.72-225.52,116.98-228.26,114.25z M-245.46,147.82
		c-2.79-2.78-5.54-5.53-8.19-8.17c-2.67,2.66-5.42,5.41-8.02,8.01c2.7,2.7,5.47,5.48,8.16,8.17
		C-250.91,153.24-248.18,150.53-245.46,147.82z M-279.02,114.3c-2.74,2.74-5.48,5.49-7.99,8c2.63,2.67,5.36,5.44,8.01,8.12
		c2.67-2.67,5.42-5.42,8.05-8.06C-273.6,119.71-276.36,116.96-279.02,114.3z M-228.04,105.25c1.99-2,4.1-4.08,6.14-6.23
		c0.25-0.27,0.34-1.03,0.15-1.33c-2.05-3.09-4.17-6.13-6.15-9.01c-3,2.98-5.74,5.71-8.41,8.37
		C-233.68,99.67-230.92,102.4-228.04,105.25z M-287.48,147.97c3.06,2.1,6.11,4.22,9.21,6.29c0.28,0.19,0.98,0.16,1.2-0.06
		c2.19-2.09,4.31-4.24,6.27-6.19c-2.89-2.9-5.64-5.66-8.32-8.34C-281.74,142.27-284.47,144.98-287.48,147.97z M-291.99,143.38
		c3.01-3,5.73-5.71,8.33-8.3c-2.68-2.67-5.43-5.42-8.03-8.02c-2.19,2.19-4.48,4.47-6.97,6.96
		C-296.52,137.02-294.26,140.19-291.99,143.38z M-241.02,92.24c2.6-2.64,5.33-5.4,8.23-8.35c-3.06-2.17-6.27-4.45-9.3-6.61
		c-2.51,2.52-4.77,4.79-6.93,6.95C-246.35,86.9-243.6,89.66-241.02,92.24z M-236.33,147.72c1.83,1.84,3.75,3.77,6.01,6.05
		c2.65-2.65,5.42-5.43,8.05-8.06c-2.21-2.31-4.09-4.28-5.89-6.16C-230.93,142.32-233.68,145.07-236.33,147.72z M-297.65,86.18
		c2.23,2.37,4.09,4.34,5.84,6.2c2.74-2.76,5.48-5.52,8.03-8.09c-1.85-1.85-3.79-3.81-6-6.02C-292.4,80.9-295.13,83.65-297.65,86.18z
		 M-248.31,74.49c-4.51-1.71-8.93-2.93-13.57-3.21c2.86,2.84,5.64,5.61,8.36,8.32C-251.96,78.06-250.22,76.35-248.31,74.49z
		 M-296.47,122.46c-2.71-2.7-5.49-5.47-8.26-8.23c0.36,4.55,1.43,9.03,3.19,13.21C-299.73,125.66-298,123.96-296.47,122.46z
		 M-215.29,117.92c0.13-0.01,0.26-0.02,0.4-0.03c-1.08-4.5-2.16-9.01-3.26-13.58c-2.07,2.05-3.83,3.79-5.37,5.31
		C-220.84,112.32-218.06,115.12-215.29,117.92z M-271.49,157.51c4.52,1.94,11.42,3.46,13.27,3.03c-2.69-2.69-5.47-5.48-8.19-8.19
		C-268.01,153.99-269.72,155.72-271.49,157.51z M-219.01,139.81c1.99-4.19,3.26-8.41,3.64-12.83c-2.78,2.78-5.52,5.52-8.24,8.24
		C-222.28,136.55-220.72,138.1-219.01,139.81z M-240.66,152.38c-2.8,2.82-5.53,5.56-8.19,8.24c4.28-0.44,8.57-1.6,12.61-3.66
		C-237.87,155.27-239.36,153.72-240.66,152.38z M-304.65,104.96c2.74-2.73,5.51-5.49,8.09-8.06c-1.41-1.43-2.94-2.99-4.51-4.59
		C-303.01,96.32-304.25,100.6-304.65,104.96z M-279.18,79.3c2.64-2.65,5.36-5.38,8.41-8.44c-4.51,1.29-8.77,2.51-13.18,3.78
		C-282.03,76.52-280.46,78.05-279.18,79.3z"/>
	<path class="st0" d="M-292.78,189.37c7.54-6.03,22.42-6.01,29.36-0.05c-11.52,12.8-11.55,31.96-0.04,44.74
		c-6.97,5.59-20.19,6.55-29.35,0.06c5.66-6.35,8.72-13.78,8.74-22.29C-284.04,203.31-287.02,195.84-292.78,189.37z"/>
	<path class="st0" d="M-297.52,193.3c9.54,9.38,10.32,26.33,0.06,36.83C-307.25,220.94-307.78,203.23-297.52,193.3z"/>
	<path class="st0" d="M-258.54,230.18c-9.89-8.75-9.92-28.04-0.12-36.84C-249.83,201.45-247.57,218.71-258.54,230.18z"/>
</g>
<g>
	<path class="st0" d="M529.65,138c-3.46,0-6.92,0-10.38,0c-0.62-0.11-1.23-0.23-1.85-0.32c-3.76-0.54-7.56-0.85-11.26-1.64
		c-19.7-4.23-36.19-14.02-49.17-29.41c-16.09-19.09-22.93-41.26-20.58-66.08c1.79-18.85,9.11-35.49,21.73-49.62
		c16.66-18.65,37.62-28.7,62.6-29.91c17.46-0.85,33.89,3.22,48.83,12.34c22.98,14.02,37.08,34.33,42.05,60.86
		c0.62,3.32,0.93,6.7,1.38,10.05c0,3.46,0,6.92,0,10.38c-0.14,1.24-0.29,2.49-0.42,3.73c-2.12,19.06-9.4,35.87-22.24,50.12
		c-13.63,15.13-30.53,24.58-50.63,28.14C536.38,137.21,533,137.55,529.65,138z M524.51-17.33c-36.71-0.03-66.78,30-66.82,66.72
		c-0.03,36.71,29.99,66.79,66.71,66.83c36.71,0.03,66.78-30,66.82-66.72C591.26,12.79,561.23-17.29,524.51-17.33z"/>
	<path class="st0" d="M497.45,49.31c0-12.34-0.03-24.67,0.01-37.01c0.02-5.98,3.75-10.62,9.44-11.78c3.6-0.74,6.81,0.25,9.75,2.4
		c7.58,5.55,15.19,11.04,22.79,16.56c9.14,6.64,18.27,13.28,27.41,19.91c2.86,2.08,4.87,4.69,5.37,8.29
		c0.67,4.81-1.08,8.65-4.89,11.43c-17.03,12.44-34.1,24.82-51.18,37.18c-3.96,2.87-8.29,3.09-12.56,0.83
		c-4.18-2.21-6.14-5.92-6.14-10.64C497.45,74.1,497.45,61.7,497.45,49.31z"/>
</g>
<g>
	<path class="st0" d="M182.73,95.15c0,3.23,0,6.47,0,9.7c-0.13,1.16-0.27,2.33-0.4,3.49c-1.98,17.81-8.78,33.52-20.79,46.85
		c-12.74,14.14-28.54,22.97-47.32,26.3c-3.11,0.55-6.27,0.86-9.41,1.29c-3.23,0-6.47,0-9.7,0c-2.77-0.35-5.55-0.6-8.3-1.06
		c-17.28-2.89-32.35-10.33-44.74-22.72c-18.59-18.58-26.78-41.17-24.4-67.32c1.6-17.56,8.47-33.07,20.2-46.26
		c15.59-17.51,35.21-26.94,58.62-28.08c16.32-0.8,31.67,3.01,45.65,11.54c21.48,13.1,34.66,32.09,39.3,56.88
		C182.02,88.85,182.31,92.01,182.73,95.15z M100.04,157.82c32.31-0.35,57.74-26.06,57.67-57.9c-0.07-32.33-25.99-57.75-57.82-57.68
		c-32.28,0.07-57.74,25.94-57.67,57.83C42.3,132.49,68.29,157.6,100.04,157.82z M36.15,106.35c0-4.34,0-8.51,0-12.68
		c-4.28,0-8.44,0-12.67,0c0,4.27,0,8.43,0,12.68C27.74,106.35,31.9,106.35,36.15,106.35z M106.03,36.46c0-4.33,0-8.5,0-12.67
		c-4.27,0-8.43,0-12.61,0c0,4.27,0,8.44,0,12.67C97.67,36.46,101.79,36.46,106.03,36.46z M93.4,163.54c0,4.32,0,8.49,0,12.68
		c4.27,0,8.44,0,12.64,0c0-4.26,0-8.43,0-12.68C101.82,163.54,97.7,163.54,93.4,163.54z M50.57,41.95
		c-2.89,2.89-5.84,5.84-8.64,8.64c2.84,2.86,5.78,5.83,8.65,8.72c2.87-2.88,5.83-5.83,8.7-8.71C56.39,47.73,53.42,44.78,50.57,41.95
		z M149.37,41.9c-2.86,2.84-5.83,5.79-8.58,8.51c2.9,2.92,5.86,5.91,8.64,8.71c2.81-2.84,5.75-5.8,8.53-8.61
		C155.15,47.7,152.2,44.74,149.37,41.9z M50.44,158.15c2.98-2.95,5.95-5.89,8.83-8.74c-2.88-2.88-5.83-5.83-8.62-8.62
		c-2.89,2.91-5.86,5.89-8.76,8.81C44.68,152.39,47.6,155.31,50.44,158.15z M149.53,140.84c-2.9,2.9-5.88,5.88-8.63,8.63
		c2.8,2.79,5.76,5.73,8.54,8.49c2.82-2.8,5.78-5.75,8.6-8.55C155.19,146.54,152.24,143.58,149.53,140.84z M175.93,106.34
		c0-4.26,0-8.43,0-12.67c-4.25,0-8.42,0-12.57,0c0,4.29,0,8.46,0,12.67C167.61,106.34,171.73,106.34,175.93,106.34z"/>
	<path class="st0" d="M147.08,99.92c-0.19,25.88-20.59,47.07-47.04,47.14c-25.88,0.07-47.06-20.54-47.13-46.99
		c-0.07-25.88,20.54-47.06,46.98-47.14C125.77,52.86,146.75,73.48,147.08,99.92z M101.78,117.61c0.11-0.05,0.22-0.09,0.33-0.14
		c0.16,0.13,0.33,0.24,0.47,0.39c5.57,5.61,17.32,3.83,20.95-3.67c3.18-6.57,2.72-13.21-1.74-18.86
		c-3.84-4.87-8.57-9.05-13.03-13.41c-2.76-2.7-5.75-5.16-8.75-7.82c-7.38,6.6-15.03,12.76-21.32,20.32
		c-4.3,5.17-5.15,11.23-3.29,17.64c2.4,8.27,13.43,12.04,20.45,7.04c0.69-0.49,1.35-1.04,2.29-1.76c-0.88,3.18-1.67,6-2.48,8.92
		c2.92,0,5.66,0,8.49,0C103.35,123.27,102.57,120.44,101.78,117.61z"/>
</g>
<g>
	<path class="st0" d="M-523.1,46.98c1.31,0,2.63,0,3.94,0c0.55,0.21,1.09,0.43,1.65,0.62c4.27,1.49,7.33,5.4,7.5,9.83
		c0.19,4.83-1.91,8.48-6.22,10.65c-1.27,0.64-1.66,1.27-1.65,2.66c0.06,16.57,0.05,33.14,0.03,49.71
		c-0.01,6.35-3.83,11.54-9.73,13.28c-1.08,0.32-2.2,0.47-3.39,0.72c0,0.65,0,1.24,0,1.84c0,11.32,0,22.64,0,33.96
		c0,3.81-0.92,4.72-4.75,4.72c-2.77,0-5.53,0-8.38,0c0,0.83,0,1.42,0,2.02c0,11.32,0,22.64,0,33.96c0,2.91-1.16,4.06-4.09,4.06
		c-37.51,0-75.03,0-112.54,0c-3.01,0-4.13-1.14-4.14-4.18c0-11.32,0-22.64,0-33.96c0-0.58,0-1.17,0-1.89c-3,0-5.84-0.1-8.66,0.03
		c-2.02,0.09-3.5-0.55-4.46-2.33c0-27.79,0-55.57,0-83.36c0.96-1.78,2.43-2.41,4.45-2.33c3.11,0.13,6.23-0.04,9.33,0.07
		c1.26,0.05,1.76-0.43,2.24-1.52c8.42-19.5,22.97-31.83,43.58-36.93c3.05-0.76,6.21-1.09,9.31-1.62c3.06,0,6.13,0,9.19,0
		c0.42,0.1,0.83,0.25,1.25,0.29c17.94,1.89,32.46,9.98,43.59,24.15c3.7,4.71,6.5,9.95,8.71,15.59c3.71,0,7.37,0,11.02,0
		c3.27,0,4.35,1.07,4.35,4.3c0,11.54,0,23.07,0,34.61c0,0.57,0,1.15,0,1.74c4.13-0.45,6.56-3.24,6.56-7.4
		c0.01-16.67-0.01-33.35,0.03-50.02c0-1.13-0.38-1.56-1.37-2c-4.25-1.89-6.77-6.19-6.51-10.82c0.25-4.48,3.32-8.41,7.67-9.88
		C-524.09,47.38-523.6,47.17-523.1,46.98z M-537.62,93.59c-0.76,0-1.41,0-2.05,0c-16.24,0-32.49,0-48.73,0
		c-0.6,0-1.21,0.04-1.8-0.05c-1.59-0.24-2.76-1.61-2.78-3.18c-0.02-1.63,1.18-3.05,2.85-3.28c0.54-0.07,1.09-0.04,1.64-0.04
		c11.05,0,22.1,0,33.15,0c0.56,0,1.13-0.05,1.74-0.08c-8.24-19.93-30.56-36.19-57.55-32.99c-12.87,1.53-23.91,7.03-33.04,16.25
		c-4.78,4.83-8.56,10.35-11.27,16.81c0.9,0,1.5,0,2.1,0c10.94,0,21.88,0,32.82,0c0.55,0,1.1-0.03,1.64,0.03
		c1.68,0.2,2.91,1.58,2.93,3.22c0.01,1.63-1.2,3.04-2.87,3.27c-0.59,0.08-1.2,0.04-1.8,0.04c-16.25,0-32.49,0-48.74,0
		c-0.64,0-1.27,0-1.92,0c0,25.04,0,49.89,0,74.75c44.62,0,89.12,0,133.7,0C-537.62,143.45-537.62,118.64-537.62,93.59z
		 M-550.78,208.38c0-11.19,0-22.26,0-33.28c-35.9,0-71.68,0-107.44,0c0,11.15,0,22.18,0,33.28
		C-622.39,208.38-586.65,208.38-550.78,208.38z M-521.18,62.72c2.5,0.03,4.6-2.03,4.63-4.53c0.03-2.5-2.03-4.6-4.53-4.63
		c-2.5-0.03-4.6,2.03-4.63,4.53C-525.74,60.59-523.68,62.7-521.18,62.72z"/>
	<path class="st0" d="M-604.49,100.15c18.64,0,37.29,0,55.93,0c3.4,0,4.45,1.03,4.45,4.36c0,17.66,0,35.32,0,52.98
		c0,3.28-1.06,4.36-4.29,4.36c-37.4,0-74.8,0-112.19,0c-3.23,0-4.29-1.08-4.29-4.36c0-17.66,0-35.32,0-52.98
		c0-3.33,1.06-4.36,4.45-4.36C-641.78,100.15-623.13,100.15-604.49,100.15z M-658.2,106.79c0,16.22,0,32.31,0,48.37
		c10.52,0,20.93,0,31.31,0c0-16.18,0-32.24,0-48.37C-637.34,106.79-647.71,106.79-658.2,106.79z M-620.13,106.79
		c0,16.23,0,32.32,0,48.37c10.52,0,20.93,0,31.3,0c0-16.19,0-32.24,0-48.37C-599.28,106.79-609.64,106.79-620.13,106.79z
		 M-582.06,106.79c0,16.22,0,32.31,0,48.37c10.52,0,20.93,0,31.31,0c0-16.18,0-32.24,0-48.37
		C-561.2,106.79-571.57,106.79-582.06,106.79z"/>
	<path class="st0" d="M-604.49,93.57c-1.81,0-3.31-1.55-3.26-3.36c0.05-1.74,1.53-3.19,3.27-3.18c1.81,0,3.32,1.55,3.26,3.36
		C-601.27,92.13-602.75,93.58-604.49,93.57z"/>
	<path class="st0" d="M-604.61,195c-11.97,0-23.94,0-35.91,0c-2.49,0-4.1-1.53-3.87-3.6c0.17-1.52,1.34-2.72,2.88-2.92
		c0.48-0.06,0.98-0.04,1.47-0.04c23.72,0,47.45,0,71.17,0c0.44,0,0.88-0.02,1.31,0.03c1.69,0.19,2.94,1.53,2.99,3.16
		c0.05,1.69-1.23,3.14-2.98,3.34c-0.54,0.06-1.09,0.03-1.64,0.03C-580.99,195-592.8,195-604.61,195z"/>
	<path class="st0" d="M-641.37,121.15c-2.42,0-4.54,0.02-6.67-0.01c-2.23-0.03-3.71-1.36-3.7-3.3c0.01-1.94,1.48-3.24,3.73-3.26
		c3.61-0.02,7.22-0.02,10.83,0c2.97,0.02,4.44,2.02,3.46,4.79c-3.02,8.48-6.08,16.95-9.14,25.42c-0.78,2.15-2.5,3.06-4.32,2.38
		c-1.86-0.69-2.61-2.45-1.85-4.58c2.31-6.48,4.66-12.94,6.98-19.41C-641.83,122.59-641.64,121.98-641.37,121.15z"/>
	<path class="st0" d="M-603.29,121.15c-2.37,0-4.5,0.02-6.62,0c-2.26-0.02-3.73-1.3-3.75-3.24c-0.02-1.94,1.45-3.3,3.67-3.31
		c3.66-0.02,7.33-0.03,10.99,0c2.85,0.03,4.32,2.05,3.36,4.73c-3.03,8.54-6.1,17.06-9.19,25.58c-0.74,2.04-2.46,2.93-4.23,2.3
		c-1.87-0.66-2.67-2.44-1.93-4.55c2.3-6.48,4.65-12.94,6.98-19.41C-603.79,122.64-603.59,122.03-603.29,121.15z"/>
	<path class="st0" d="M-565.23,121.15c-2.29,0-4.41,0.01-6.53,0c-2.36-0.02-3.86-1.34-3.83-3.33c0.03-1.93,1.49-3.21,3.76-3.23
		c3.61-0.02,7.22-0.03,10.83,0c2.95,0.02,4.41,2.04,3.42,4.82c-3.02,8.48-6.08,16.95-9.14,25.42c-0.77,2.13-2.52,3.03-4.33,2.34
		c-1.85-0.71-2.58-2.45-1.82-4.6c2.31-6.48,4.66-12.94,6.99-19.41C-565.68,122.57-565.49,121.95-565.23,121.15z"/>
</g>
<g>
	<path class="st0" d="M80.7-153.26c-3.41-1.2-5.9-3.31-6.19-7.11c-0.12-1.67,0.28-3.39,0.56-5.06c1.06-6.18,1.98-12.4,3.32-18.52
		c1.52-6.96,5.64-12.22,11.72-15.89c1.13-0.68,1.54-1.39,1.53-2.71c-0.04-21.16-0.03-42.32-0.03-63.48c0-7,3.2-10.23,10.16-10.23
		c0.65,0,1.31,0,2.21,0c0-2.51-0.11-4.91,0.04-7.3c0.09-1.33,0.36-2.77,1-3.9c1.02-1.78,2.89-2.26,4.88-2.14
		c1.04,0.06,1.83-0.08,2.45-1.16c0.42-0.73,1.36-1.38,2.19-1.61c1.01-0.28,1.27-0.84,1.43-1.7c2.36-12.27,9.58-20.65,21.01-25.21
		c12.67-5.06,25.35-4.61,37.55,1.64c9.54,4.89,15.36,12.8,17.45,23.35c0.2,1,0.4,1.64,1.56,1.95c0.82,0.22,1.69,0.94,2.14,1.68
		c0.57,0.94,1.24,1.06,2.17,1.06c4.29,0.02,6.14,1.89,6.14,6.14c0.01,6.5,0.01,13,0,19.51c-0.01,4.04-1.92,5.98-5.97,5.99
		c-1.05,0-1.79,0.14-2.42,1.2c-1,1.66-2.82,1.95-4.67,2.01c-0.39,2.46-0.66,4.91-1.19,7.31c-1.46,6.66-4.94,12.18-9.78,16.9
		c-1.78,1.73-3.62,3.4-5.32,5.19c-0.54,0.57-0.98,1.45-1.02,2.21c-0.13,2.31-0.07,4.63-0.04,6.94c0.04,3.6,1.9,5.91,5.38,6.65
		c10.55,2.24,21.09,4.49,31.65,6.7c9.51,1.99,18.02,10.94,19.43,20.51c0.2,1.38-0.58,2.63-1.83,2.92c-1.28,0.31-2.46-0.39-2.96-1.76
		c-0.8-2.21-1.33-4.57-2.43-6.62c-3.07-5.72-7.97-9.09-14.32-10.42c-8.62-1.8-17.23-3.63-25.83-5.51c-1.37-0.3-2.44-0.15-3.7,0.57
		c-16.64,9.61-33.33,9.6-49.99,0.02c-1.03-0.6-1.93-0.99-3.21-0.71c-8.92,1.96-17.87,3.8-26.79,5.74
		c-8.6,1.86-14.81,8.47-16.3,17.26c-1.06,6.24-2.13,12.48-3.19,18.72c-0.39,2.27,0.68,3.86,2.85,3.88
		c5.67,0.07,11.34,0.02,17.2,0.02c0.55-3.28,1.09-6.52,1.62-9.75c0.47-2.88,0.91-5.76,1.39-8.64c0.32-1.9,1.44-2.93,2.9-2.71
		c1.49,0.23,2.3,1.45,2,3.4c-0.78,5.11-1.64,10.22-2.46,15.32c-0.12,0.74-0.22,1.49-0.33,2.31c32.97,0,65.79,0,98.7,0
		c-0.95-5.85-1.92-11.6-2.8-17.36c-0.13-0.82-0.13-1.91,0.31-2.49c0.47-0.62,1.53-1.1,2.34-1.1c1.23-0.01,1.91,0.98,2.11,2.17
		c0.57,3.36,1.11,6.73,1.66,10.1c0.47,2.87,0.94,5.74,1.43,8.76c1.26,0,2.47,0,3.67,0c4.35,0,8.71,0.02,13.06-0.01
		c2.54-0.02,3.66-1.25,3.33-3.76c-0.3-2.29-0.76-4.56-1.14-6.84c-0.06-0.33-0.13-0.65-0.15-0.98c-0.09-1.53,0.78-2.68,2.14-2.85
		c1.26-0.16,2.46,0.68,2.73,2.11c0.52,2.76,1.08,5.52,1.38,8.3c0.46,4.38-1.51,7.26-5.67,8.69c-0.21,0.07-0.39,0.19-0.59,0.29
		C178.35-153.26,129.53-153.26,80.7-153.26z M122.26-254.8c0.21,6.23,1.82,11.75,5.51,16.42c4.7,5.94,10.46,10.84,16.35,15.59
		c4.8,3.87,15.95,3.77,20.46-0.5c1.88-1.78,4.02-3.27,5.9-5.05c4.3-4.08,8.96-7.86,11.84-13.23c2.19-4.09,3.28-8.44,3.45-13.23
		c-0.72,0-1.32,0-1.91,0c-6.34,0-12.68,0.1-19.01-0.06c-2.04-0.05-4.25-0.4-6.04-1.3c-3.3-1.65-6.29-1.79-9.54,0.03
		c-3.17,1.78-6.73,1.45-10.19,1.2c-1.38-0.1-2.15-1.18-2.04-2.56c0.11-1.37,0.98-2.19,2.4-2.25c0.99-0.05,2.01,0.12,2.97-0.05
		c1.97-0.36,4.05-0.59,5.84-1.39c3.89-1.75,7.57-1.76,11.46-0.02c1.8,0.81,3.87,1.34,5.84,1.38c8.04,0.15,16.09,0.06,24.13,0.06
		c0.59,0,1.19,0,1.86,0c0-9.42,0-18.69,0-27.91c-25.13,0-50.11,0-75.04,0c0,9.36,0,18.58,0,27.91c3.71,0,7.28-0.02,10.86,0.01
		c1.87,0.01,2.92,0.89,2.96,2.38c0.04,1.57-1.04,2.52-2.98,2.57C125.7-254.77,124.06-254.8,122.26-254.8z M117.19-254.11
		c-1.77-0.94-3.52-1.47-4.69-2.6c-0.88-0.86-1.57-1.3-2.75-1.24c-2.14,0.11-4.02-0.57-4.98-2.56c-0.54-1.14-0.68-2.53-0.75-3.82
		c-0.11-2.28-0.03-4.57-0.03-6.97c-0.86,0-1.46,0-2.06,0c-4.36,0-5.36,0.99-5.36,5.34c0,20.39,0,40.78,0,61.17c0,0.64,0,1.29,0,2.07
		c0.73-0.13,1.27-0.21,1.8-0.33c10.07-2.13,20.13-4.28,30.2-6.4c4.04-0.85,5.8-2.93,5.85-7.1c0.03-2.2,0.08-4.41-0.04-6.61
		c-0.04-0.73-0.43-1.57-0.94-2.1c-1.67-1.75-3.48-3.37-5.22-5.06c-4.97-4.82-8.56-10.47-10.04-17.31
		C117.7-249.94,117.46-252.29,117.19-254.11z M187.2-292.83c-1.37-7.58-4.96-13.72-11.19-18.1c-8.69-6.1-18.45-7.83-28.78-6.11
		c-8.75,1.45-16.36,5.12-21.66,12.59c-2.47,3.47-4.07,7.32-4.7,11.62C143.05-292.83,165.06-292.83,187.2-292.83z M168.69-219.95
		c-9.85,6.76-19.48,6.69-29.34,0.05c0.42,5.52-0.36,10.5-5.26,13.87c12.79,7.15,29.6,6.12,39.75-0.08
		C168.95-209.47,168.26-214.48,168.69-219.95z M111.31-263c0-7.22,0-14.34,0-21.55c-0.78,0-1.47,0-2.26,0c0,7.22,0,14.34,0,21.55
		C109.85-263,110.54-263,111.31-263z M196.8-284.55c0,7.25,0,14.4,0,21.54c0.79,0,1.43,0,2.17,0c0-7.21,0-14.33,0-21.54
		C198.2-284.55,197.52-284.55,196.8-284.55z"/>
	<path class="st0" d="M181.83-273.4c0.84,1.57,1.58,3.04,2.39,4.46c0.53,0.93,0.51,1.7-0.51,2.19c-0.95,0.46-1.53,0-1.96-0.87
		c-0.67-1.38-1.48-2.7-2.09-4.11c-0.48-1.1-1.13-1.54-2.45-1.09c0,1.47-0.03,3,0.01,4.53c0.02,0.98-0.26,1.61-1.35,1.64
		c-1.18,0.03-1.48-0.63-1.48-1.68c0.03-4.02,0.04-8.03-0.01-12.05c-0.02-1.36,0.54-1.9,1.88-1.81c1.53,0.1,3.07,0.09,4.61,0.21
		c1.85,0.14,3.07,1.13,3.54,2.93c0.53,2.01-0.17,4.05-1.72,5.14C182.47-273.75,182.23-273.63,181.83-273.4z M177.33-279.64
		c0,1.45,0,2.88,0,4.3c3.39,0.34,4.47-0.18,4.47-2.11C181.81-279.31,180.79-279.85,177.33-279.64z"/>
	<path class="st0" d="M167.22-270.77c0.92-3.26,1.84-6.53,2.76-9.79c0.26-0.93,0.43-1.85,1.84-1.42c1.36,0.41,1.1,1.22,0.8,2.18
		c-1.21,3.88-2.42,7.75-3.55,11.65c-0.31,1.07-0.87,1.61-1.94,1.63c-1.13,0.02-1.79-0.47-2.12-1.63c-1.15-3.95-2.38-7.88-3.62-11.8
		c-0.3-0.97-0.35-1.66,0.85-2.03c1.25-0.39,1.54,0.32,1.8,1.26c0.92,3.32,1.87,6.62,2.81,9.94
		C166.96-270.79,167.09-270.78,167.22-270.77z"/>
</g>
<g>
	<path class="st0" d="M-244.84-190.36c0.33-1.39,0.62-2.79,1.01-4.16c2.63-9.21,10.26-15.82,19.62-16.83
		c1.89-0.2,3.85,0.08,5.75,0.32c3.08,0.4,6.12,0.38,8.92-1.01c8.85-4.4,17.77-4.51,26.9-0.91c4.66,1.84,9.49,3.27,14.16,5.07
		c12.83,4.95,20.19,17.26,18.98,31.31c-0.7,8.18-2.76,15.95-6.52,23.26c-0.24,0.46-0.36,1.2-0.16,1.65
		c3.54,8.2-0.23,14.96-9.16,16.09c-1.75,13.1-8.77,22.23-21.18,27.3c0,2.38-0.06,4.81,0.05,7.23c0.02,0.45,0.67,1.04,1.16,1.27
		c4.86,2.23,9.83,4.22,14.62,6.6c13.71,6.8,20.8,17.93,21.26,33.24c0.09,2.87,0.03,5.74,0.01,8.62c-0.02,2.17-0.98,3.15-3.14,3.15
		c-29.71,0.01-59.41,0-89.12,0.03c-1.45,0-2.35-0.69-3.18-1.68c0-4.64,0-9.28,0-13.92c0.1-0.3,0.25-0.6,0.3-0.91
		c1.77-12.02,7.81-21.26,18.42-27.15c5.38-2.98,11.17-5.23,16.81-7.72c1.16-0.51,1.76-1.03,1.63-2.4c-0.15-1.59-0.12-3.2-0.01-4.8
		c0.09-1.24-0.34-1.79-1.51-2.27c-7.9-3.27-13.68-8.83-17.01-16.7c-1.32-3.11-2-6.49-3.03-9.93c0,0-0.32-0.04-0.64-0.08
		c-7.91-0.98-11.96-8.92-8.19-15.96c0.29-0.55,0.25-1.47,0-2.08c-2.53-6.2-4.47-12.56-5.51-19.18c-0.48-3.04-0.84-6.1-1.26-9.15
		C-244.84-184.83-244.84-187.59-244.84-190.36z M-160.75-155.84c0.27-0.49,0.5-0.86,0.69-1.25c3.14-6.43,4.88-13.23,5.3-20.36
		c0.73-12.54-5.52-22.01-17.12-26.08c-4.68-1.64-9.38-3.23-14.03-4.95c-6.99-2.57-13.83-2.36-20.55,0.89
		c-4.11,1.99-8.4,2.39-12.9,1.78c-2.15-0.29-4.45-0.35-6.55,0.11c-7.62,1.67-13.45,9.31-13.58,17.54c-0.12,7.05,0.71,14,2.55,20.8
		c1.03,3.81,2.34,7.54,3.49,11.19c1.6-0.01,2.14-0.59,2.22-1.81c0.06-0.98,0.3-1.96,0.56-2.92c3.35-12.66,15.26-20.99,28.31-19.84
		c1.62,0.14,2.5,1.09,2.63,2.83c0.6,8.01,6,13.06,13.99,13.07c6.63,0.01,13.25-0.01,19.88,0.01c2.28,0,3.22,0.95,3.24,3.21
		c0.02,1.65,0,3.31,0,4.99C-162.03-156.37-161.48-156.14-160.75-155.84z M-204.93-175.41c-0.57,0-1.06-0.02-1.55,0
		c-10.48,0.56-19.33,9.55-19.78,20.07c-0.12,2.95-0.48,3.35-3.39,3.8c-2.58,0.4-4.51,2.55-4.58,5.11c-0.07,2.56,1.74,4.86,4.29,5.34
		c0.8,0.15,1.65,0.1,2.48,0.11c3.05,0.01,3.75,0.7,3.85,3.8c0.43,13.6,11.96,25.05,25.55,25.36c14.98,0.35,26.96-10.97,27.45-25.96
		c0.08-2.28,0.98-3.17,3.27-3.2c0.55-0.01,1.1,0,1.66,0c3.2-0.04,5.54-2.12,5.67-5.05c0.13-2.94-1.97-5.2-5.17-5.55
		c-1.89-0.21-2.73-1.11-2.76-3.03c-0.03-1.59-0.01-3.18-0.01-4.92c-0.69,0-1.23,0-1.77,0c-5.19,0-10.38,0-15.57,0
		C-195.64-159.53-202.61-165.11-204.93-175.41z M-202.41-53.52c-8.51-10.74-14.3-22.47-17.6-35.41
		c-14.8,6.29-21.19,20.19-19.31,35.41C-227.15-53.52-214.97-53.52-202.41-53.52z M-191.76-53.58c12.54,0,24.76,0,36.97,0
		c1.35-16.72-7.1-32-19.49-35.22C-177.52-75.88-183.34-64.23-191.76-53.58z M-181.83-92.39c-0.69,3.36-1.32,6.49-1.97,9.61
		c-0.57,2.72-2.06,3.42-4.57,2.17c-2.57-1.27-5.1-2.61-7.71-3.8c-0.58-0.27-1.49-0.25-2.08,0.01c-2.26,1.02-4.45,2.18-6.66,3.3
		c-3.88,1.97-5.07,1.39-5.86-2.83c-0.02-0.11-0.02-0.22-0.05-0.33c-0.54-2.67-1.09-5.34-1.66-8.12c-1.02,0.46-1.8,0.82-2.65,1.21
		c3.18,13.4,9.26,25.2,17.94,35.79c8.7-10.65,14.8-22.42,17.92-35.78C-180.04-91.55-180.83-91.92-181.83-92.39z M-202.42-106.67
		c0,1.33-0.01,2.7,0,4.07c0.02,1.1-0.32,2.44,0.18,3.25c1.49,2.4,3.32,4.59,5.11,6.99c1.76-2.34,3.35-4.45,4.93-6.57
		c0.19-0.25,0.35-0.59,0.36-0.89c0.03-2.31,0.02-4.61,0.02-6.85C-195.37-106.67-198.77-106.67-202.42-106.67z M-201.17-88.91
		c-1.65-2.2-3.18-4.25-4.74-6.33c-0.54,0.25-0.97,0.46-1.49,0.7c0.54,2.66,1.08,5.25,1.64,7.99
		C-204.13-87.39-202.74-88.11-201.17-88.91z M-186.83-94.55c-0.53-0.25-0.96-0.45-1.49-0.7c-1.57,2.09-3.11,4.14-4.77,6.36
		c1.61,0.8,3.04,1.52,4.64,2.31C-187.89-89.31-187.38-91.83-186.83-94.55z"/>
	<path class="st0" d="M-122.88-217.87c1.73,0.51,3.51,0.89,5.19,1.55c9.53,3.75,14.98,13.81,12.96,23.83
		c-2.05,10.2-11.1,17.33-21.63,17.04c-9.99-0.28-18.6-7.99-20.12-18.02c-1.72-11.38,5.89-22.02,17.22-24.06
		c0.37-0.07,0.72-0.22,1.07-0.33C-126.42-217.87-124.65-217.87-122.88-217.87z M-125.56-188.71c4.33,0.01,7.92-3.52,7.97-7.84
		c0.05-4.4-3.51-8.02-7.92-8.05c-4.31-0.03-7.94,3.53-7.96,7.84C-133.51-192.35-129.95-188.72-125.56-188.71z M-122.83-180.69
		c2.32-0.99,4.37-1.86,6.42-2.74c-0.01-0.26-0.02-0.52-0.03-0.77c-0.81-0.34-1.7-1.07-2.41-0.93c-1.36,0.28-2.61,1.05-3.98,1.65
		C-122.83-182.78-122.83-182.02-122.83-180.69z M-134.69-183.38c2.16,0.88,4.2,1.71,6.44,2.62c0-1.23,0-2.05,0-2.82
		c-0.99-0.38-2.02-0.57-2.82-1.11C-132.65-185.77-133.65-185.28-134.69-183.38z M-112.45-193.92c-0.38,0.98-0.57,2.07-1.16,2.89
		c-1.2,1.69-0.27,2.51,1.3,3.6c0.91-2.2,1.76-4.24,2.69-6.49C-110.82-193.92-111.63-193.92-112.45-193.92z M-138.6-193.88
		c-0.9,0-1.69,0-2.87,0c0.96,2.27,1.82,4.29,2.69,6.35c1.83-0.99,2.4-1.96,1.29-3.57C-138.04-191.89-138.23-192.93-138.6-193.88z
		 M-109.58-199.36c-0.98-2.32-1.83-4.35-2.68-6.38c-0.25-0.01-0.51-0.03-0.76-0.04c-0.35,0.83-1.11,1.75-0.97,2.49
		c0.26,1.36,1.04,2.61,1.62,3.93C-111.62-199.36-110.86-199.36-109.58-199.36z M-138.78-205.86c-0.89,2.19-1.73,4.24-2.63,6.46
		c1.27,0,2.08,0,2.8,0c0.39-1.03,0.58-2.08,1.14-2.86C-136.28-203.91-137.12-204.79-138.78-205.86z M-122.8-212.57
		c0,1.19,0,2,0,2.83c0.98,0.38,2.07,0.58,2.89,1.16c1.69,1.2,2.51,0.28,3.61-1.3C-118.51-210.8-120.55-211.64-122.8-212.57z
		 M-134.6-209.96c-0.01,0.28-0.02,0.56-0.03,0.84c0.81,0.35,1.7,1.1,2.41,0.95c1.36-0.27,2.62-1.05,3.95-1.64c0-0.76,0-1.56,0-2.77
		C-130.52-211.65-132.56-210.8-134.6-209.96z"/>
	<path class="st0" d="M-93.72-122.4c5.12,0,10.02,0,14.93,0c2.81,0,3.63,0.83,3.63,3.66c0,22.31,0,44.62,0,66.93
		c0,2.82-0.83,3.66-3.63,3.66c-15.24,0-30.48,0-45.71,0c-2.84,0-3.67-0.82-3.67-3.62c-0.01-4.02,0-8.05,0-12.29
		c-0.68,0-1.26,0-1.85,0c-4.47,0-8.94,0.01-13.42,0c-2.37-0.01-3.29-0.94-3.29-3.33c-0.01-22.53-0.01-45.06,0-67.59
		c0-2.39,0.92-3.32,3.3-3.32c15.46-0.01,30.92-0.01,46.38,0c2.45,0,3.34,0.93,3.34,3.44C-93.71-130.79-93.72-126.71-93.72-122.4z
		 M-80.59-53.52c0-21.28,0-42.4,0-63.49c-14.13,0-28.14,0-42.19,0c0,21.2,0,42.32,0,63.49C-108.68-53.52-94.68-53.52-80.59-53.52z
		 M-128.19-69.45c0-0.78,0-1.43,0-2.08c0-15.73,0-31.47,0-47.2c0-2.84,0.82-3.67,3.61-3.67c7.89,0,15.79,0,23.68,0
		c0.59,0,1.17,0,1.75,0c0-3.65,0-7.09,0-10.47c-14.16,0-28.2,0-42.21,0c0,21.21,0,42.28,0,63.43
		C-136.99-69.45-132.71-69.45-128.19-69.45z"/>
	<path class="st0" d="M-96.45-183.39c11.68-0.04,21.24,9.43,21.28,21.1c0.05,11.71-9.38,21.27-21.04,21.33
		c-11.78,0.06-21.37-9.44-21.37-21.17C-117.58-173.83-108.12-183.35-96.45-183.39z M-88.42-162.24c0-4.31-3.6-7.9-7.91-7.89
		c-4.42,0.01-8,3.59-7.98,7.99c0.02,4.32,3.58,7.88,7.91,7.9C-92.01-154.22-88.42-157.81-88.42-162.24z M-80.4-164.9
		c-1-2.35-1.86-4.36-2.71-6.38c-0.24-0.01-0.48-0.01-0.72-0.02c-0.38,0.8-1.19,1.68-1.05,2.37c0.29,1.4,1.1,2.7,1.69,4.03
		C-82.42-164.9-81.65-164.9-80.4-164.9z M-93.65-178.08c0,1.21,0,2.02,0,2.81c1.02,0.39,2.02,0.72,2.96,1.15
		c1.99,0.91,2.01,0.92,3.42-1.36C-89.36-176.33-91.41-177.17-93.65-178.08z M-109.64-171.34c-0.87,2.14-1.7,4.19-2.62,6.46
		c1.25,0,2.01,0,2.8,0c0.36-0.95,0.55-1.97,1.08-2.76C-107.36-169.17-107.63-170.25-109.64-171.34z M-83.28-159.46
		c-0.39,1.01-0.72,2.01-1.15,2.95c-0.91,2-0.94,1.99,1.35,3.43c0.86-2.09,1.7-4.14,2.62-6.38
		C-81.68-159.46-82.49-159.46-83.28-159.46z M-105.53-148.89c2.18,0.88,4.21,1.7,6.43,2.59c0-1.25,0-2.05,0-2.8
		c-1.01-0.39-2.05-0.58-2.84-1.13C-103.56-151.37-104.5-150.71-105.53-148.89z M-93.64-149.1c0,0.81,0,1.62,0,2.85
		c2.27-0.96,4.33-1.82,6.41-2.7c-1.05-1.89-2.09-2.28-3.64-1.25C-91.67-149.66-92.69-149.46-93.64-149.1z M-99.09-175.33
		c0-0.83,0-1.59,0-2.78c-2.27,0.95-4.33,1.81-6.38,2.67c0,0.27,0,0.54,0,0.81c0.85,0.32,1.76,1.01,2.52,0.87
		C-101.64-174-100.42-174.76-99.09-175.33z M-109.67-153.11c0.28,0.01,0.56,0.02,0.83,0.03c0.35-0.81,1.09-1.7,0.95-2.41
		c-0.27-1.36-1.06-2.62-1.64-3.95c-0.75,0-1.56,0-2.76,0C-111.36-157.19-110.51-155.15-109.67-153.11z"/>
	<path class="st0" d="M-205.07-150.29c0,2.72-0.82,3.98-2.62,4c-1.81,0.03-2.69-1.25-2.69-3.93c0-2.73,0.81-3.97,2.61-4
		C-205.95-154.24-205.07-152.96-205.07-150.29z"/>
	<path class="st0" d="M-189.16-150.31c0-0.33-0.01-0.66,0-0.99c0.07-1.79,1.15-2.95,2.71-2.91c1.5,0.04,2.52,1.15,2.58,2.87
		c0.03,0.72,0.03,1.44,0,2.15c-0.06,1.78-1.16,2.95-2.71,2.91c-1.49-0.04-2.51-1.16-2.58-2.87
		C-189.18-149.54-189.16-149.93-189.16-150.31z"/>
	<path class="st0" d="M-197.19-79.98c1.45-0.03,2.65,1.1,2.71,2.54c0.06,1.48-1.19,2.77-2.68,2.75c-1.44-0.02-2.6-1.19-2.61-2.64
		C-199.78-78.78-198.64-79.95-197.19-79.98z"/>
	<path class="st0" d="M-194.48-66.78c0.03,1.42-1.13,2.65-2.56,2.71c-1.43,0.05-2.66-1.08-2.73-2.52c-0.08-1.52,1.11-2.77,2.62-2.77
		C-195.7-69.38-194.51-68.23-194.48-66.78z"/>
	<path class="st0" d="M-85.59-85.22c-0.35,0.68-0.59,1.36-0.99,1.92c-4.18,5.89-8.38,11.78-12.6,17.64
		c-1.54,2.14-3.43,2.15-4.95,0.03c-4.25-5.91-8.46-11.85-12.71-17.76c-0.93-1.3-0.93-2.49,0-3.79c4.25-5.91,8.46-11.85,12.71-17.76
		c1.45-2.01,3.45-2.03,4.89-0.04c4.29,5.95,8.55,11.93,12.79,17.91C-86.09-86.55-85.9-85.9-85.59-85.22z M-91.67-85.28
		c-3.35-4.68-6.63-9.26-10.01-13.98c-3.44,4.82-6.7,9.39-9.99,13.99c3.35,4.68,6.63,9.26,10,13.98
		C-98.25-76.08-95.01-80.61-91.67-85.28z"/>
	<path class="st0" d="M-83.12-60.08c0,0.22,0,0.44,0,0.66c-0.03,2.08-1.02,3.3-2.66,3.29c-1.65-0.01-2.62-1.22-2.64-3.32
		c-0.01-0.61-0.02-1.22,0.01-1.82c0.08-1.69,1.15-2.8,2.65-2.79c1.51,0.01,2.55,1.11,2.63,2.82C-83.1-60.85-83.12-60.46-83.12-60.08
		z"/>
	<path class="st0" d="M-120.21-110.6c0-0.5-0.07-1.01,0.01-1.49c0.24-1.43,1.11-2.26,2.58-2.33c1.38-0.07,2.52,0.97,2.65,2.43
		c0.09,0.99,0.08,1.99,0.01,2.98c-0.11,1.47-1.21,2.49-2.59,2.51c-1.44,0.02-2.55-1.04-2.67-2.61c-0.04-0.49-0.01-0.99-0.01-1.49
		C-120.22-110.6-120.21-110.6-120.21-110.6z"/>
	<path class="st0" d="M-138.76-126.54c0-0.5-0.07-1.01,0.01-1.49c0.26-1.43,1.14-2.29,2.6-2.29c1.47,0,2.39,0.85,2.6,2.28
		c0.14,0.97,0.09,1.99,0.04,2.98c-0.09,1.58-1.19,2.64-2.63,2.65c-1.44,0-2.53-1.06-2.64-2.64c-0.04-0.49-0.01-0.99-0.01-1.49
		C-138.78-126.54-138.77-126.54-138.76-126.54z"/>
</g>
</svg>
