<?xml version="1.0" encoding="UTF-8"?>
<!-- Generator: Adobe Illustrator 16.0.0, SVG Export Plug-In . SVG Version: 6.00 Build 0)  -->
<!DOCTYPE svg PUBLIC "-//W3C//DTD SVG 1.1//EN" "http://www.w3.org/Graphics/SVG/1.1/DTD/svg11.dtd">
<svg version="1.1" id="Layer_1" xmlns="http://www.w3.org/2000/svg" xmlns:xlink="http://www.w3.org/1999/xlink" x="0px" y="0px" width="25px" height="25px" viewBox="0 0 25 25" enable-background="new 0 0 25 25" xml:space="preserve">
<g id="Layer_2">
</g>
<g id="Layer_1_1_">
	<g>
		<circle fill="#045662" cx="12.5" cy="12.5" r="19.25"/>
		<path fill="#FFFFFF" d="M17.59,11.922c1.605,0.516,2.443,1.107,2.443,2.166c0,0.373-0.066,0.616-0.2,0.73    c-0.134,0.115-0.401,0.173-0.804,0.173h-5.426l-0.822,8.016h-0.536l-0.784-8.015H6.038c-0.402,0-0.67-0.064-0.804-0.193    c-0.134-0.13-0.2-0.365-0.2-0.71c0-1.058,0.77-1.65,2.377-2.165c0.09,0,0.18-0.03,0.27-0.086c0.49-0.172,0.802-0.444,0.936-0.816    L9.82,5.95V5.734c0-0.23-0.222-0.415-0.668-0.558L9.085,5.133H9.018C8.482,4.99,8.214,4.746,8.214,4.403    c0-0.402,0.09-0.652,0.268-0.753c0.18-0.1,0.49-0.15,0.938-0.15h6.16c0.447,0,0.76,0.05,0.938,0.15S16.786,4,16.786,4.402    c0,0.344-0.269,0.588-0.804,0.73h-0.067l-0.067,0.044c-0.445,0.143-0.67,0.33-0.67,0.558v0.215l1.206,5.07    c0.134,0.372,0.446,0.644,0.937,0.816C17.411,11.892,17.501,11.921,17.59,11.922L17.59,11.922z"/>
	</g>
</g>
</svg>