<?xml version="1.0" encoding="UTF-8"?>
<!-- Generator: Adobe Illustrator 16.0.0, SVG Export Plug-In . SVG Version: 6.00 Build 0)  -->
<!DOCTYPE svg PUBLIC "-//W3C//DTD SVG 1.1//EN" "http://www.w3.org/Graphics/SVG/1.1/DTD/svg11.dtd">
<svg version="1.1" id="Layer_1" xmlns="http://www.w3.org/2000/svg" xmlns:xlink="http://www.w3.org/1999/xlink" x="0px" y="0px" width="14px" height="8px" viewBox="0 0 14 8" enable-background="new 0 0 14 8" xml:space="preserve">
<g display="none">
	<path display="inline" fill="#FF0000" d="M12.012,0l-0.697,0.727c1.733,1.808,1.733,4.738,0,6.546L12.012,8   C14.129,5.793,14.129,2.21,12.012,0z M10.3,1.714L9.6,2.449c0.967,1.014,0.967,2.661,0,3.673l0.7,0.735   C11.652,5.439,11.652,3.136,10.3,1.714z M1.588,0l0.698,0.727c-1.734,1.808-1.734,4.738,0,6.546L1.588,8   C-0.529,5.793-0.529,2.21,1.588,0z M3.3,1.714L4,2.449C3.033,3.463,3.033,5.109,4,6.122L3.3,6.857   C1.948,5.439,1.948,3.136,3.3,1.714z"/>
	<circle display="inline" fill="#FF0000" cx="6.8" cy="4.4" r="1.6"/>
</g>
<g>
	<g>
		<path fill="#FF0000" d="M0.477,5.876V1.46h0.899v3.666h2.235v0.75H0.477z"/>
		<path fill="#FF0000" d="M4.224,5.876V1.424h0.899v4.452H4.224z"/>
		<path fill="#FF0000" d="M7.115,5.876L5.524,1.424h0.975l1.126,3.294l1.09-3.294h0.953L8.074,5.876H7.115z"/>
		<path fill="#FF0000" d="M10.127,5.876V1.424h3.301v0.753h-2.401v0.987h2.234v0.75h-2.234v1.212h2.487v0.75H10.127z"/>
	</g>
</g>
</svg>