<?xml version="1.0" encoding="utf-8"?>
<!-- Generator: Adobe Illustrator 16.0.0, SVG Export Plug-In . SVG Version: 6.00 Build 0)  -->
<!DOCTYPE svg PUBLIC "-//W3C//DTD SVG 1.1//EN" "http://www.w3.org/Graphics/SVG/1.1/DTD/svg11.dtd">
<svg version="1.1" id="Layer_1" xmlns="http://www.w3.org/2000/svg" xmlns:xlink="http://www.w3.org/1999/xlink" x="0px" y="0px"
	 width="20px" height="18.586px" viewBox="0 0 20 18.586" enable-background="new 0 0 20 18.586" xml:space="preserve">
<g>
	<path fill-rule="evenodd" clip-rule="evenodd" d="M7.416,12.607c0-0.587,0-1.168,0-1.763c-0.157,0-0.304,0.004-0.451,0
		c-0.219-0.009-0.362-0.143-0.367-0.338c-0.006-0.202,0.138-0.347,0.365-0.359c0.073-0.005,0.147-0.001,0.222-0.001
		c0.073,0,0.146,0,0.241,0c0-0.369,0-0.72,0-1.07c0-0.081-0.002-0.161-0.001-0.241c0.003-0.314,0.126-0.439,0.439-0.439
		c1.162,0,2.325,0,3.487,0c0.655,0,1.31,0,1.979,0c0-1.686,0-3.364,0-5.053c-3.837,0-7.674,0-11.534,0c0,0.085,0,0.164,0,0.243
		c0,1.774,0,3.55,0,5.324c0,0.081,0.001,0.161-0.013,0.24C1.754,9.319,1.611,9.435,1.444,9.434c-0.173,0-0.318-0.129-0.338-0.306
		C1.1,9.066,1.102,9.003,1.102,8.942c0-2.461,0.011-4.921-0.009-7.383C1.088,0.851,1.596,0.381,2.271,0.383
		C5.8,0.396,9.332,0.389,12.861,0.391c0.753,0,1.174,0.411,1.176,1.167c0.003,2.176,0,4.353,0,6.529c0,0.097,0,0.194,0,0.31
		c0.133,0,0.244,0,0.354,0c0.729,0,1.459,0,2.188,0c0.331,0.001,0.448,0.117,0.448,0.445c0,1.31,0.003,2.619-0.004,3.93
		c-0.001,0.144,0.032,0.205,0.18,0.236c0.313,0.07,0.62,0.166,0.93,0.247c0.182,0.045,0.309,0.141,0.32,0.333
		c0.013,0.186-0.098,0.295-0.26,0.365c-0.386,0.165-0.771,0.333-1.176,0.507c0.056,0.058,0.101,0.105,0.146,0.153
		c0.521,0.521,1.042,1.039,1.561,1.561c0.246,0.246,0.244,0.408-0.004,0.659c-0.393,0.395-0.785,0.786-1.18,1.18
		c-0.253,0.253-0.41,0.253-0.66,0.002c-0.515-0.515-1.032-1.03-1.547-1.547c-0.048-0.046-0.098-0.092-0.165-0.155
		c-0.142,0.328-0.276,0.635-0.411,0.945c-0.034,0.079-0.07,0.158-0.104,0.237c-0.067,0.165-0.183,0.265-0.369,0.248
		c-0.176-0.015-0.271-0.126-0.314-0.291c-0.143-0.539-0.29-1.074-0.435-1.609c-0.064-0.246-0.136-0.487-0.189-0.736
		c-0.031-0.141-0.098-0.178-0.24-0.176c-1.688,0.004-3.376,0.002-5.064,0.004c-0.555,0-0.615-0.056-0.615-0.614
		c0-0.325,0-0.653,0-1.005c-0.095,0-0.173,0-0.251,0c-1.65,0-3.301,0.001-4.952-0.002c-0.571,0-0.991-0.306-1.091-0.812
		c-0.044-0.227-0.03-0.469-0.019-0.702c0.007-0.154,0.165-0.272,0.322-0.279c0.164-0.006,0.321,0.112,0.344,0.278
		c0.02,0.141,0.011,0.284,0.017,0.425c0.01,0.26,0.134,0.396,0.389,0.396c1.719,0.002,3.438,0,5.156,0
		C7.358,12.62,7.377,12.613,7.416,12.607z M16.321,9.111c-2.728,0-5.455,0-8.184,0c0,1.709,0,3.409,0,5.114c1.659,0,3.301,0,4.955,0
		c-0.012-0.054-0.017-0.096-0.028-0.137c-0.149-0.561-0.301-1.12-0.448-1.68c-0.105-0.396,0.102-0.603,0.497-0.498
		c0.729,0.194,1.456,0.39,2.183,0.582c0.337,0.089,0.674,0.181,1.025,0.272C16.321,11.535,16.321,10.332,16.321,9.111z M1.807,2.628
		c3.847,0,7.682,0,11.538,0c0-0.355,0-0.7,0-1.044c0-0.391-0.104-0.495-0.493-0.495c-3.522,0-7.045,0-10.568,0
		c-0.062,0-0.125-0.006-0.185,0.005C1.945,1.12,1.817,1.206,1.812,1.365C1.797,1.782,1.807,2.201,1.807,2.628z M17.049,13.684
		c-1.231-0.329-2.416-0.646-3.63-0.973c0.329,1.227,0.644,2.402,0.974,3.633c0.117-0.27,0.21-0.487,0.306-0.705
		c0.149-0.337,0.404-0.385,0.666-0.121c0.539,0.536,1.076,1.073,1.612,1.612c0.072,0.072,0.129,0.161,0.18,0.223
		c0.315-0.314,0.596-0.594,0.882-0.881c-0.594-0.593-1.202-1.2-1.808-1.809c-0.273-0.271-0.227-0.519,0.124-0.672
		C16.572,13.894,16.79,13.799,17.049,13.684z"/>
</g>
</svg>
