<?xml version="1.0" encoding="utf-8"?>
<!-- Generator: Adobe Illustrator 16.0.0, SVG Export Plug-In . SVG Version: 6.00 Build 0)  -->
<!DOCTYPE svg PUBLIC "-//W3C//DTD SVG 1.1//EN" "http://www.w3.org/Graphics/SVG/1.1/DTD/svg11.dtd">
<svg version="1.1" id="Layer_1" xmlns="http://www.w3.org/2000/svg" xmlns:xlink="http://www.w3.org/1999/xlink" x="0px" y="0px"
	 width="13px" height="13px" viewBox="0 0 13 13" enable-background="new 0 0 13 13" xml:space="preserve">
<g>
	<path fill="#5A5B5B" d="M4.87,10.585c0.415,0.351,0.843,0.711,1.299,1.105c0.095,0.084,0.213,0.125,0.332,0.125
		s0.236-0.041,0.332-0.125c0.456-0.395,0.883-0.755,1.297-1.105c0.722-0.607,1.342-1.132,1.882-1.642
		c1.05-0.989,2.019-2.112,2.019-3.615c0-0.855-0.293-1.656-0.827-2.255c-0.561-0.631-1.339-0.979-2.19-0.979
		c-0.95,0-1.775,0.45-2.384,1.301C6.583,3.458,6.54,3.523,6.5,3.585c-0.041-0.062-0.083-0.127-0.128-0.19
		C5.763,2.544,4.939,2.094,3.988,2.094c-0.852,0-1.63,0.348-2.192,0.979C1.263,3.672,0.97,4.473,0.97,5.328
		c0,0.928,0.36,1.785,1.134,2.698C2.78,8.821,3.748,9.638,4.87,10.585z"/>
	<path fill="#333333" d="M6.832,11.69c0.456-0.395,0.883-0.755,1.297-1.105c0.722-0.607,1.342-1.132,1.882-1.642
		c1.05-0.989,2.019-2.112,2.019-3.615c0-0.855-0.293-1.656-0.827-2.255c-0.561-0.631-1.339-0.979-2.19-0.979
		c-0.95,0-1.775,0.45-2.384,1.301C6.583,3.458,6.54,3.523,6.5,3.585v8.23C6.618,11.815,6.736,11.774,6.832,11.69z"/>
</g>
</svg>
