<?xml version="1.0" encoding="utf-8"?>
<!-- Generator: Adobe Illustrator 16.0.0, SVG Export Plug-In . SVG Version: 6.00 Build 0)  -->
<!DOCTYPE svg PUBLIC "-//W3C//DTD SVG 1.1//EN" "http://www.w3.org/Graphics/SVG/1.1/DTD/svg11.dtd">
<svg version="1.1" id="Layer_1" xmlns="http://www.w3.org/2000/svg" xmlns:xlink="http://www.w3.org/1999/xlink" x="0px" y="0px"
	 width="20px" height="20px" viewBox="0 0 20 20" enable-background="new 0 0 20 20" xml:space="preserve">
<g>
	<g>
		<g>
			<g>
				<g>
					<g>
						<g>
							<g>
								<g>
									<g>
										<g>
											<g>
												<circle fill="#F04935" cx="9.545" cy="10" r="8.619"/>
											</g>
										</g>
									</g>
								</g>
							</g>
						</g>
					</g>
				</g>
			</g>
		</g>
	</g>
	<path fill="#DA1F26" d="M9.545,18.619c4.76,0,8.619-3.859,8.619-8.619c0-0.39-0.026-0.772-0.076-1.148l-2.659-2.66l-0.293,0.354
		l-0.549-0.549L13.81,6.42l-3.137-3.137l-2.256,1.38l1.715,1.715l-4.54,8.614l3.637,3.62h0c0.007,0.001,0.014,0.001,0.021,0.001l0,0
		C9.349,18.617,9.446,18.619,9.545,18.619z"/>
	<g>
		
			<rect x="4.902" y="5.26" transform="matrix(-0.7069 0.7073 -0.7073 -0.7069 13.8666 6.4739)" fill="#343A41" width="1.381" height="1.7"/>
	</g>
	<g>
		
			<rect x="12.648" y="5.42" transform="matrix(-0.7071 0.7071 -0.7071 -0.7071 27.3623 0.8864)" fill="#23272B" width="1.7" height="1.381"/>
	</g>
	<circle fill="#FFFFFF" cx="9.545" cy="10.782" r="5.273"/>
	<path fill="#E9EDF4" d="M9.545,5.509c-0.001,0-0.002,0-0.003,0v10.546c0.001,0,0.002,0,0.003,0c2.912,0,5.272-2.36,5.272-5.273
		C14.817,7.87,12.457,5.509,9.545,5.509z"/>
	<g>
		<path fill="#CDD3E1" d="M9.545,8.416c-1.307,0-2.366,1.059-2.366,2.366c0,0.009,0,0.018,0,0.026H5.374c0-0.008,0-0.017,0-0.026
			c0-2.304,1.868-4.171,4.172-4.171c0.011,0,0.022,0,0.033,0v1.806C9.567,8.417,9.556,8.416,9.545,8.416z"/>
	</g>
	<path fill="#565B67" d="M10.05,5.026V4.175H9.04v0.851c-2.951,0.256-5.273,2.74-5.273,5.755c0,3.186,2.592,5.779,5.778,5.779
		c3.186,0,5.778-2.593,5.778-5.779C15.323,7.766,13,5.283,10.05,5.026z M9.545,15.55c-2.629,0-4.768-2.139-4.768-4.768
		c0-2.629,2.139-4.768,4.768-4.768c2.629,0,4.768,2.139,4.768,4.768C14.313,13.411,12.174,15.55,9.545,15.55z"/>
	<path fill="#343A41" d="M10.05,5.026V4.175H9.542v1.839c0.001,0,0.002,0,0.003,0c2.629,0,4.768,2.139,4.768,4.768
		c0,2.629-2.139,4.768-4.768,4.768c-0.001,0-0.002,0-0.003,0v1.011c0.001,0,0.002,0,0.003,0c3.186,0,5.778-2.593,5.778-5.779
		C15.323,7.766,13,5.283,10.05,5.026z"/>
	<g>
		<rect x="8.417" y="3.283" fill="#343A41" width="2.256" height="1.38"/>
	</g>
	<g>
		<rect x="9.542" y="3.283" fill="#23272B" width="1.131" height="1.38"/>
	</g>
	<g>
		
			<rect x="7.978" y="8.581" transform="matrix(-0.6845 0.729 -0.729 -0.6845 21.5527 10.5991)" fill="#565B67" width="1.01" height="2.764"/>
	</g>
	<g>
		<polygon fill="#343A41" points="9.542,10.264 9.542,10.854 9.836,10.541 		"/>
	</g>
	<g>
		<polygon fill="#FDC20F" points="13.048,9.842 15.429,6.192 12.223,6.192 9.853,10.688 11.783,10.688 10.114,14.778 10.114,14.778 
			15.729,9.842 		"/>
	</g>
	<g>
		<polygon fill="#F8951D" points="13.048,9.842 15.429,6.192 13.028,6.192 13.028,12.216 15.729,9.842 		"/>
	</g>
</g>
</svg>
