<?xml version="1.0" encoding="utf-8"?>
<!-- Generator: Adobe Illustrator 16.0.0, SVG Export Plug-In . SVG Version: 6.00 Build 0)  -->
<!DOCTYPE svg PUBLIC "-//W3C//DTD SVG 1.1//EN" "http://www.w3.org/Graphics/SVG/1.1/DTD/svg11.dtd">
<svg version="1.1" id="Layer_1" xmlns="http://www.w3.org/2000/svg" xmlns:xlink="http://www.w3.org/1999/xlink" x="0px" y="0px"
	 width="20px" height="20px" viewBox="0 0 20 20" enable-background="new 0 0 20 20" xml:space="preserve">
<g>
	<path fill="#FCB557" d="M9.165,10.233l-8.881,0.355c0.134,2.305,1.128,4.381,2.667,5.909c1.63-1.457,4.031-1.947,6.214-2.066
		V10.233L9.165,10.233z"/>
	<path fill="#FCB557" d="M9.165,5.682C6.981,5.563,4.58,5.072,2.95,3.616C1.411,5.143,0.417,7.219,0.283,9.525l8.881,0.354V5.682z"
		/>
	<path fill="#F47C4C" d="M9.518,9.879l8.88-0.354c-0.134-2.306-1.126-4.382-2.667-5.909c-1.63,1.456-4.031,1.947-6.213,2.065V9.879
		L9.518,9.879z"/>
	<path fill="#F47C4C" d="M9.518,5.326c1.877-0.115,3.993-1.188,5.412-2.418c-1.411-1.104-3.154-1.799-5.057-1.909L9.518,5.326z"/>
	<path fill="#FCB557" d="M9.165,5.326L8.81,0.999c-1.902,0.11-3.646,0.805-5.056,1.909C5.172,4.138,7.288,5.211,9.165,5.326z"/>
	<path fill="#F47C4C" d="M9.518,14.787l0.355,4.327c1.902-0.11,3.646-0.806,5.057-1.908C13.511,15.976,11.396,14.901,9.518,14.787z"
		/>
	<path fill="#F47C4C" d="M18.398,10.588l-8.88-0.355v4.197c2.182,0.119,4.583,0.609,6.213,2.066
		C17.272,14.97,18.265,12.894,18.398,10.588L18.398,10.588z"/>
	<path fill="#FCB557" d="M9.165,14.787c-1.876,0.114-3.992,1.188-5.411,2.419c1.41,1.103,3.154,1.798,5.056,1.908L9.165,14.787z"/>
	<path fill="#05303E" d="M18.398,10.588c0.01-0.176,0.016-0.354,0.016-0.532c0-0.179-0.006-0.356-0.016-0.532H9.873V6.037
		c2.183-0.119,4.229-0.964,5.858-2.42c-0.254-0.252-0.521-0.488-0.802-0.708c-1.419,1.23-3.181,1.949-5.057,2.063V0.999
		c-0.176-0.01-0.354-0.016-0.532-0.016l-0.355,9.074l0.355,9.073c0.178,0,0.356-0.006,0.532-0.016v-3.972
		c1.876,0.113,3.638,0.833,5.057,2.063c0.281-0.221,0.548-0.457,0.802-0.709c-1.63-1.457-3.676-2.303-5.858-2.42v-3.489H18.398z"/>
	<path fill="#0D495F" d="M8.81,0.999v3.973C6.933,4.857,5.172,4.138,3.753,2.908c-0.282,0.22-0.55,0.457-0.803,0.708
		c1.63,1.456,3.676,2.302,5.859,2.42v3.488H0.283c-0.01,0.176-0.016,0.353-0.016,0.532c0,0.178,0.006,0.356,0.016,0.532H8.81v3.489
		c-2.183,0.117-4.229,0.963-5.859,2.42c0.253,0.252,0.521,0.488,0.803,0.709c1.419-1.23,3.179-1.95,5.056-2.063v3.972
		c0.176,0.01,0.353,0.016,0.532,0.016V0.983C9.163,0.983,8.985,0.989,8.81,0.999L8.81,0.999z"/>
</g>
</svg>
