<svg xmlns="http://www.w3.org/2000/svg" viewBox="0 0 26.45 40.17"><g id="Layer_2" data-name="Layer 2"><g id="Capa_1" data-name="Capa 1"><path d="M12.55,39.25,26.33,6.09a1.5,1.5,0,0,0-2.76-1.15L21.7,9.43,14.8,6.56l1.86-4.49a1.5,1.5,0,0,0-.8-2,1.51,1.51,0,0,0-2,.81L.11,34.08a1.52,1.52,0,0,0,0,1.11A1.47,1.47,0,0,0,.92,36a1.5,1.5,0,0,0,2-.8l1.87-4.49,6.9,2.87L9.79,38.1a1.48,1.48,0,0,0,.8,1.95A1.5,1.5,0,0,0,12.55,39.25ZM9.34,19.68l6.91,2.88L14.81,26,7.9,23.14Zm2.3-5.52L18.54,17l-1.43,3.45L10.2,17.61Zm9.2-2.65L19.4,15l-6.9-2.87,1.43-3.46ZM5.61,28.66,7,25.21,14,28.08l-1.44,3.46Z"/></g></g></svg>